<?xml version="1.0" encoding="UTF-8" standalone="no"?>
<!-- Created with Inkscape (http://www.inkscape.org/) -->

<svg
   width="305.39999mm"
   height="216mm"
   viewBox="0 0 305.39999 216"
   version="1.1"
   id="svg1"
   inkscape:version="1.3 (0e150ed6c4, 2023-07-21)"
   sodipodi:docname="cover.svg"
   xmlns:inkscape="http://www.inkscape.org/namespaces/inkscape"
   xmlns:sodipodi="http://sodipodi.sourceforge.net/DTD/sodipodi-0.dtd"
   xmlns="http://www.w3.org/2000/svg"
   xmlns:svg="http://www.w3.org/2000/svg">
  <sodipodi:namedview
     id="namedview1"
     pagecolor="#ffffff"
     bordercolor="#666666"
     borderopacity="1.0"
     inkscape:showpageshadow="false"
     inkscape:pageopacity="0.0"
     inkscape:pagecheckerboard="true"
     inkscape:deskcolor="#d1d1d1"
     inkscape:document-units="mm"
     showguides="true"
     inkscape:zoom="1.4182101"
     inkscape:cx="830.2719"
     inkscape:cy="347.62127"
     inkscape:window-width="3840"
     inkscape:window-height="2054"
     inkscape:window-x="5749"
     inkscape:window-y="1612"
     inkscape:window-maximized="1"
     inkscape:current-layer="layer3"
     inkscape:clip-to-page="true"
     showgrid="false">
    <sodipodi:guide
       position="3.01008,216"
       orientation="-1,0"
       id="guide1"
       inkscape:locked="false"
       inkscape:label=""
       inkscape:color="rgb(224,27,36)" />
    <sodipodi:guide
       position="302.4,216"
       orientation="-1,0"
       id="guide2"
       inkscape:locked="false"
       inkscape:label=""
       inkscape:color="rgb(224,27,36)" />
    <sodipodi:guide
       position="151,216"
       orientation="-1,0"
       id="guide3"
       inkscape:locked="false"
       inkscape:label=""
       inkscape:color="rgb(224,27,36)" />
    <sodipodi:guide
       position="154.4,216"
       orientation="-1,0"
       id="guide4"
       inkscape:locked="false"
       inkscape:label=""
       inkscape:color="rgb(224,27,36)" />
    <sodipodi:guide
       position="0,213"
       orientation="0,1"
       id="guide5"
       inkscape:locked="false"
       inkscape:label=""
       inkscape:color="rgb(224,27,36)" />
    <sodipodi:guide
       position="0,3"
       orientation="0,1"
       id="guide6"
       inkscape:locked="false"
       inkscape:label=""
       inkscape:color="rgb(224,27,36)" />
    <sodipodi:guide
       position="0,63"
       orientation="0,1"
       id="guide11"
       inkscape:locked="false"
       inkscape:label=""
       inkscape:color="rgb(0,134,229)" />
    <sodipodi:guide
       position="152.7,216"
       orientation="-1,0"
       id="guide12"
       inkscape:locked="false"
       inkscape:label=""
       inkscape:color="rgb(51,209,122)" />
    <sodipodi:guide
       position="77,216"
       orientation="-1,0"
       id="guide13"
       inkscape:locked="false"
       inkscape:label=""
       inkscape:color="rgb(51,209,122)" />
    <sodipodi:guide
       position="164.4,216"
       orientation="-1,0"
       id="guide14"
       inkscape:locked="false"
       inkscape:label=""
       inkscape:color="rgb(0,134,229)" />
    <sodipodi:guide
       position="292.4,216"
       orientation="-1,0"
       id="guide7"
       inkscape:locked="false"
       inkscape:label=""
       inkscape:color="rgb(0,134,229)" />
    <sodipodi:guide
       position="0,10.5"
       orientation="0,1"
       id="guide8"
       inkscape:locked="false"
       inkscape:label=""
       inkscape:color="rgb(0,134,229)" />
    <sodipodi:guide
       position="0,138"
       orientation="0,1"
       id="guide9"
       inkscape:locked="false"
       inkscape:label=""
       inkscape:color="rgb(51,209,122)" />
    <sodipodi:guide
       position="0,55.5"
       orientation="0,1"
       id="guide10"
       inkscape:locked="false"
       inkscape:label=""
       inkscape:color="rgb(0,134,229)" />
    <sodipodi:guide
       position="0,70.5"
       orientation="0,1"
       id="guide15"
       inkscape:locked="false"
       inkscape:label=""
       inkscape:color="rgb(0,134,229)" />
    <sodipodi:guide
       position="228.4,216"
       orientation="-1,0"
       id="guide16"
       inkscape:locked="false"
       inkscape:label=""
       inkscape:color="rgb(51,209,122)" />
  </sodipodi:namedview>
  <defs
     id="defs1">
    <filter
       inkscape:collect="always"
       style="color-interpolation-filters:sRGB"
       id="filter13"
       x="-0.768"
       y="-0.768"
       width="2.536"
       height="2.536">
      <feGaussianBlur
         inkscape:collect="always"
         stdDeviation="64"
         id="feGaussianBlur13" />
    </filter>
  </defs>
  <g
     inkscape:label="Layer 1"
     inkscape:groupmode="layer"
     id="layer1"
     style="display:inline">
    <rect
       style="fill:#ffffff;fill-opacity:1;stroke:none;stroke-width:0.79375;stroke-linecap:square;stroke-miterlimit:10;paint-order:stroke fill markers"
       id="rect12"
       width="305.39999"
       height="215.99998"
       x="-7.6293945e-06"
       y="-1.5258789e-05"
       ry="0.22127146" />
    <path
       style="fill:#e6d6cb;fill-opacity:1;stroke:none;stroke-width:0.264583px;stroke-linecap:butt;stroke-linejoin:miter;stroke-opacity:1"
       d="M 305.39999,-3.0517578e-5 V 215.99998 L -9.4958496e-6,215.99995 0.21862315,-1.5258789e-5 Z"
       id="path10"
       sodipodi:nodetypes="ccccc" />
    <g
       id="g11"
       transform="matrix(1.3154654,0,0,1.3154654,-237.52202,-334.70412)"
       style="fill:#e5cab3;fill-opacity:1;stroke:none">
      <path
         style="font-size:89.9283px;line-height:1.25;font-family:Ysabeau;-inkscape-font-specification:Ysabeau;fill:#e5cab3;fill-opacity:1;stroke:none;stroke-width:0.660931"
         d="m 353.88631,313.86001 q -8.63312,0 -15.46767,-3.86692 -6.74462,-3.86692 -10.61154,-10.70147 -3.86691,-6.83455 -3.86691,-15.55759 0,-6.83456 2.33813,-12.50004 2.42807,-5.66548 6.6547,-9.71225 4.31655,-4.04678 9.89211,-6.20506 5.66548,-2.2482 12.14032,-2.2482 8.63312,0 15.37773,3.86691 6.74463,3.86692 10.61154,10.70147 3.86692,6.74462 3.86692,15.5576 0,6.83455 -2.42806,12.50003 -2.33814,5.66548 -6.56477,9.71226 -4.22663,4.04677 -9.89211,6.29498 -5.57555,2.15828 -12.05039,2.15828 z m 1.16907,-4.85613 q 6.74462,0 11.87053,-3.14749 5.12591,-3.14749 7.91369,-8.72305 2.8777,-5.66548 2.8777,-12.94967 0,-7.91369 -3.14749,-13.75903 -3.14749,-5.93527 -8.63311,-9.17269 -5.3957,-3.32735 -12.23025,-3.32735 -6.56476,0 -11.69068,3.14749 -5.03598,3.14749 -7.91369,8.72305 -2.8777,5.57555 -2.8777,12.94967 0,7.82377 3.14749,13.75903 3.14749,5.93527 8.54319,9.26262 5.48562,3.23742 12.14032,3.23742 z"
         id="text4"
         aria-label="O" />
      <path
         style="font-size:89.9283px;line-height:1.25;font-family:Ysabeau;-inkscape-font-specification:Ysabeau;fill:#e5cab3;fill-opacity:1;stroke:none;stroke-width:0.660931"
         d="m 394.99334,313.86001 q -8.63312,0 -15.46767,-3.86692 -6.74462,-3.86692 -10.61153,-10.70147 -3.86692,-6.83455 -3.86692,-15.55759 0,-6.83456 2.33813,-12.50004 2.42806,-5.66548 6.65469,-9.71225 4.31656,-4.04678 9.89212,-6.20506 5.66548,-2.2482 12.14032,-2.2482 8.63311,0 15.37774,3.86691 6.74462,3.86692 10.61154,10.70147 3.86691,6.74462 3.86691,15.5576 0,6.83455 -2.42806,12.50003 -2.33814,5.66548 -6.56477,9.71226 -4.22663,4.04677 -9.89211,6.29498 -5.57555,2.15828 -12.05039,2.15828 z m 1.16907,-4.85613 q 6.74462,0 11.87053,-3.14749 5.12591,-3.14749 7.91369,-8.72305 2.87771,-5.66548 2.87771,-12.94967 0,-7.91369 -3.14749,-13.75903 -3.14749,-5.93527 -8.63312,-9.17269 -5.3957,-3.32735 -12.23025,-3.32735 -6.56476,0 -11.69068,3.14749 -5.03598,3.14749 -7.91369,8.72305 -2.8777,5.57555 -2.8777,12.94967 0,7.82377 3.14749,13.75903 3.14749,5.93527 8.54319,9.26262 5.48562,3.23742 12.14032,3.23742 z"
         id="text4-6"
         aria-label="O" />
      <path
         style="font-size:136.063px;line-height:1.25;font-family:Ysabeau;-inkscape-font-specification:Ysabeau;fill:#e5cab3;fill-opacity:1;stroke:none;stroke-width:0.660931"
         d="m 350.91867,319.65997 v -71.29473 l 6.92448,-1.09673 v 71.29473 z"
         id="text4-6-0"
         aria-label="I"
         sodipodi:nodetypes="ccccc" />
    </g>
    <circle
       style="opacity:0.75;mix-blend-mode:normal;fill:#ffffff;fill-opacity:1;stroke:none;stroke-width:0.79375;stroke-linecap:square;stroke-miterlimit:10;paint-order:stroke fill markers;filter:url(#filter13)"
       id="path13"
       cx="154.89571"
       cy="-2.799241e-05"
       r="100" />
    <text
       xml:space="preserve"
       style="font-size:12px;line-height:1.25;font-family:sans-serif;letter-spacing:0.079375px;fill:#213f45;fill-opacity:1;stroke-width:0.264583"
       x="164.39999"
       y="120.03654"
       id="text10"><tspan
         sodipodi:role="line"
         id="tspan10"
         style="font-style:normal;font-variant:normal;font-weight:500;font-stretch:normal;font-size:12px;font-family:Ysabeau;-inkscape-font-specification:'Ysabeau Medium';letter-spacing:0.079375px;fill:#213f45;fill-opacity:1;stroke-width:0.264583"
         x="164.39999"
         y="120.03654">ЛЕФИННЕОРАШШЕ</tspan></text>
    <text
       xml:space="preserve"
       style="font-size:12px;line-height:1.25;font-family:sans-serif;letter-spacing:0.079375px;fill:#213f45;fill-opacity:1;stroke-width:0.264583"
       x="164.39999"
       y="143.78261"
       id="text10-9"><tspan
         sodipodi:role="line"
         id="tspan10-75"
         style="font-style:normal;font-variant:normal;font-weight:500;font-stretch:normal;font-size:12px;font-family:Ysabeau;-inkscape-font-specification:'Ysabeau Medium';letter-spacing:0.079375px;fill:#213f45;fill-opacity:1;stroke-width:0.264583"
         x="164.39999"
         y="143.78261">ЛЕРУШШАКУТ АIСОП</tspan></text>
    <text
       xml:space="preserve"
       style="font-size:7px;line-height:1.25;font-family:sans-serif;letter-spacing:0.79375px;fill:#213f45;fill-opacity:1;stroke-width:0.264583"
       x="164.92915"
       y="130.45114"
       id="text10-2"><tspan
         sodipodi:role="line"
         id="tspan10-7"
         style="font-style:normal;font-variant:normal;font-weight:600;font-stretch:normal;font-size:7px;font-family:Ysabeau;-inkscape-font-specification:'Ysabeau Semi-Bold';letter-spacing:0.79375px;fill:#213f45;fill-opacity:1;stroke-width:0.264583"
         x="164.92915"
         y="130.45114">ЛОС</tspan></text>
    <path
       style="fill:#3a6d78;fill-opacity:1;stroke:none;stroke-width:0.264583px;stroke-linecap:butt;stroke-linejoin:miter;stroke-opacity:1"
       d="m 305.39999,153 v 63 H 0 l -7.6293945e-6,-63 z"
       id="path10-7"
       sodipodi:nodetypes="ccccc" />
    <text
       xml:space="preserve"
       style="font-size:6px;line-height:1.25;font-family:sans-serif;letter-spacing:1.05833px;fill:#f7f1ee;fill-opacity:1;stroke-width:0.264583"
       x="164.39999"
       y="166.75278"
       id="text11"><tspan
         sodipodi:role="line"
         id="tspan11"
         style="font-style:normal;font-variant:normal;font-weight:500;font-stretch:normal;font-size:6px;font-family:'Noto Serif JP';-inkscape-font-specification:'Noto Serif JP Medium';letter-spacing:1.05833px;fill:#f7f1ee;fill-opacity:1;stroke-width:0.264583"
         x="164.39999"
         y="166.75278">イソップ寓話で学ぶフェンナ語</tspan></text>
    <text
       xml:space="preserve"
       style="font-size:4.5px;line-height:1.25;font-family:sans-serif;letter-spacing:0.264583px;fill:#f7f1ee;fill-opacity:1;stroke-width:0.264583"
       x="164.39999"
       y="204.44168"
       id="text11-8"><tspan
         sodipodi:role="line"
         id="tspan11-9"
         style="font-style:normal;font-variant:normal;font-weight:300;font-stretch:normal;font-size:4.5px;font-family:'Noto Serif';-inkscape-font-specification:'Noto Serif Light';letter-spacing:0.264583px;fill:#f7f1ee;fill-opacity:1;stroke-width:0.264583"
         x="164.39999"
         y="204.44168">Ziphil Shaleiras</tspan></text>
    <g
       id="g11-1"
       transform="matrix(0.33031165,0,0,0.33031165,-46.845211,-15.63154)"
       style="fill:#bf7640;fill-opacity:1;stroke:none">
      <path
         style="font-size:89.9283px;line-height:1.25;font-family:Ysabeau;-inkscape-font-specification:Ysabeau;fill:#bf7640;fill-opacity:1;stroke:none;stroke-width:0.660931"
         d="m 353.88631,313.86001 q -8.63312,0 -15.46767,-3.86692 -6.74462,-3.86692 -10.61154,-10.70147 -3.86691,-6.83455 -3.86691,-15.55759 0,-6.83456 2.33813,-12.50004 2.42807,-5.66548 6.6547,-9.71225 4.31655,-4.04678 9.89211,-6.20506 5.66548,-2.2482 12.14032,-2.2482 8.63312,0 15.37773,3.86691 6.74463,3.86692 10.61154,10.70147 3.86692,6.74462 3.86692,15.5576 0,6.83455 -2.42806,12.50003 -2.33814,5.66548 -6.56477,9.71226 -4.22663,4.04677 -9.89211,6.29498 -5.57555,2.15828 -12.05039,2.15828 z m 1.16907,-4.85613 q 6.74462,0 11.87053,-3.14749 5.12591,-3.14749 7.91369,-8.72305 2.8777,-5.66548 2.8777,-12.94967 0,-7.91369 -3.14749,-13.75903 -3.14749,-5.93527 -8.63311,-9.17269 -5.3957,-3.32735 -12.23025,-3.32735 -6.56476,0 -11.69068,3.14749 -5.03598,3.14749 -7.91369,8.72305 -2.8777,5.57555 -2.8777,12.94967 0,7.82377 3.14749,13.75903 3.14749,5.93527 8.54319,9.26262 5.48562,3.23742 12.14032,3.23742 z"
         id="text4-0"
         aria-label="O" />
      <path
         style="font-size:89.9283px;line-height:1.25;font-family:Ysabeau;-inkscape-font-specification:Ysabeau;fill:#bf7640;fill-opacity:1;stroke:none;stroke-width:0.660931"
         d="m 394.99334,313.86001 q -8.63312,0 -15.46767,-3.86692 -6.74462,-3.86692 -10.61153,-10.70147 -3.86692,-6.83455 -3.86692,-15.55759 0,-6.83456 2.33813,-12.50004 2.42806,-5.66548 6.65469,-9.71225 4.31656,-4.04678 9.89212,-6.20506 5.66548,-2.2482 12.14032,-2.2482 8.63311,0 15.37774,3.86691 6.74462,3.86692 10.61154,10.70147 3.86691,6.74462 3.86691,15.5576 0,6.83455 -2.42806,12.50003 -2.33814,5.66548 -6.56477,9.71226 -4.22663,4.04677 -9.89211,6.29498 -5.57555,2.15828 -12.05039,2.15828 z m 1.16907,-4.85613 q 6.74462,0 11.87053,-3.14749 5.12591,-3.14749 7.91369,-8.72305 2.87771,-5.66548 2.87771,-12.94967 0,-7.91369 -3.14749,-13.75903 -3.14749,-5.93527 -8.63312,-9.17269 -5.3957,-3.32735 -12.23025,-3.32735 -6.56476,0 -11.69068,3.14749 -5.03598,3.14749 -7.91369,8.72305 -2.8777,5.57555 -2.8777,12.94967 0,7.82377 3.14749,13.75903 3.14749,5.93527 8.54319,9.26262 5.48562,3.23742 12.14032,3.23742 z"
         id="text4-6-7"
         aria-label="O" />
      <path
         style="font-size:136.063px;line-height:1.25;font-family:Ysabeau;-inkscape-font-specification:Ysabeau;fill:#bf7640;fill-opacity:1;stroke:none;stroke-width:0.660931"
         d="m 350.91867,319.65997 v -71.29473 l 6.92448,-1.09673 v 71.29473 z"
         id="text4-6-0-0"
         aria-label="I"
         sodipodi:nodetypes="ccccc" />
    </g>
  </g>
  <g
     inkscape:groupmode="layer"
     id="layer2"
     inkscape:label="Layer 2"
     style="display:none"
     sodipodi:insensitive="true">
    <path
       id="rect14"
       style="opacity:1;fill:#ffffff;fill-opacity:1;stroke:none;stroke-width:0.79375;stroke-linecap:square;stroke-miterlimit:10;paint-order:stroke fill markers"
       d="M 0,0 V 215.99974 H 305.39996 V 0 Z m 154.4,3.000001 h 148 V 213 h -148 z"
       sodipodi:nodetypes="cccccccccc" />
  </g>
  <g
     inkscape:groupmode="layer"
     id="layer3"
     inkscape:label="Layer 3"
     sodipodi:insensitive="true"
     style="display:none"
     inkscape:export-filename="cover.png"
     inkscape:export-xdpi="192"
     inkscape:export-ydpi="192">
    <rect
       style="opacity:0;fill:#000000;fill-opacity:1;stroke-width:0.79375;stroke-linecap:square;stroke-miterlimit:10;paint-order:stroke fill markers"
       id="rect15"
       width="147.99998"
       height="210"
       x="154.40001"
       y="3.000001"
       inkscape:export-filename="rect15.png"
       inkscape:export-xdpi="192"
       inkscape:export-ydpi="192" />
  </g>
</svg>
